Coordinates
version=1
nRows=9
nColumns=36
inDegrees=yes

Units are S.I. units (second, meters, Newtons, ...)
If the header above contains a line with 'inDegrees', this indicates whether rotational values are in degrees (yes) or radians (no).

endheader
time	pelvis_tilt	pelvis_list	pelvis_rotation	pelvis_tx	pelvis_ty	pelvis_tz	hip_flexion_r	hip_adduction_r	hip_rotation_r	knee_angle_r	knee_angle_r_beta	ankle_angle_r	subtalar_angle_r	mtp_angle_r	hip_flexion_l	hip_adduction_l	hip_rotation_l	knee_angle_l	knee_angle_l_beta	ankle_angle_l	subtalar_angle_l	mtp_angle_l	lumbar_extension	lumbar_bending	lumbar_rotation	arm_flex_r	arm_add_r	arm_rot_r	elbow_flex_r	pro_sup_r	arm_flex_l	arm_add_l	arm_rot_l	elbow_flex_l	pro_sup_l
      1.48000000	    -23.66743742	     -1.12672718	     -6.55364033	     -0.40368070	      0.74291178	     -0.55601506	     94.70880133	     -6.43416256	      5.20590434	     98.52270389	      1.71954557	     20.53101137	    -10.28856940	     -7.27088435	     93.94626082	    -19.89362166	      9.95536692	    103.21285206	      1.80140410	     24.70802387	     -5.13511747	     -7.27088435	    -34.87210396	     -5.48517027	      4.26613601	     54.49074557	    -24.49985661	      1.03522204	     93.08340855	    109.54271406	     70.28455896	    -20.66011334	     28.77695548	     95.90341605	    109.03267894
      1.49000000	    -24.53096992	     -0.90688257	     -6.71985517	     -0.40392049	      0.73475972	     -0.55676735	     96.51177186	     -6.24747251	      5.70195636	     99.46813493	      1.73604646	     20.10900079	    -10.35164682	     -7.27320354	     95.47494459	    -19.66780496	     10.29207338	    104.17721402	      1.81823539	     25.04242314	     -5.37487853	     -7.27320354	    -35.57205713	     -5.47530218	      4.32792047	     61.17043531	    -25.44547690	      4.10219353	     92.50897310	    109.57531986	     75.42559796	    -20.29339358	     30.57025568	     95.21238388	    108.87795786
      1.50000000	    -25.38986284	     -0.76526146	     -6.68255460	     -0.40389553	      0.72757599	     -0.55770579	     97.97625319	     -6.32468096	      6.03715806	    100.17469843	      1.74837831	     20.22032894	    -10.35927566	     -7.27526232	     96.83862284	    -19.22656373	     10.61022446	    104.92797154	      1.83133858	     25.49186975	     -5.69155517	     -7.27526232	    -36.21017851	     -5.28211571	      4.24856042	     67.52894677	    -25.94017352	      6.94779800	     91.99436924	    109.60532687	     80.15735585	    -19.86824319	     32.01125185	     94.58482847	    108.74420929
      1.51000000	    -26.21022953	     -0.86332775	     -6.82699354	     -0.40372981	      0.72116071	     -0.55801378	     99.05009219	     -6.19009907	      5.99110667	    100.63973933	      1.75649481	     20.90848916	    -10.41261111	     -7.27784890	     98.18511181	    -19.05435911	     11.20502136	    105.63202376	      1.84362661	     25.85662376	     -5.98528977	     -7.27784890	    -36.74383181	     -4.94451435	      4.26440489	     73.64961472	    -25.83066914	      9.81224948	     91.23195642	    109.57603084	     84.41290785	    -19.68148786	     33.10805102	     94.20659453	    108.59283202
      1.52000000	    -27.08408846	     -1.04293333	     -7.06943362	     -0.40360991	      0.71538122	     -0.55787835	     99.96570257	     -5.89491366	      5.76442884	    100.92377690	      1.76145220	     21.90193416	    -10.63502433	     -7.28007540	     99.59074363	    -19.03972624	     11.89182629	    106.25630045	      1.85452229	     26.14900044	     -6.18700301	     -7.28007540	    -37.03043141	     -4.59825882	      4.42047663	     79.20870824	    -25.33357762	     12.37830015	     90.56627616	    109.53063197	     88.17760195	    -19.38932786	     33.90274866	     93.78035839	    108.45741803
      1.53000000	    -27.69610260	     -1.06163616	     -7.28560953	     -0.40324732	      0.71105051	     -0.55772554	    100.61675034	     -5.61033717	      5.71529131	    101.16215317	      1.76561265	     22.74994332	    -10.80942679	     -7.28222749	    100.55492919	    -19.05190851	     12.30313342	    106.74771581	      1.86309911	     26.31904196	     -6.27625772	     -7.28222749	    -37.49219036	     -4.48059842	      4.45845302	     84.21969183	    -24.63522042	     14.56264828	     90.01039490	    109.45856355	     91.63770007	    -18.90772061	     34.50325026	     93.29962265	    108.30991585
      1.54000000	    -28.01816338	     -0.88984148	     -7.43088694	     -0.40248009	      0.70824777	     -0.55763168	    101.08910289	     -5.39367898	      5.93626401	    101.44190124	      1.77049518	     23.19816873	    -10.78203346	     -7.28488433	    101.00558074	    -19.05153218	     12.36730334	    107.11398523	      1.86949172	     26.45822689	     -6.39680416	     -7.28488433	    -38.15823545	     -4.58111468	      4.35103418	     88.70861485	    -23.84589266	     16.45757754	     89.58186760	    109.35031837	     94.86085933	    -18.28763950	     35.09506485	     92.77934018	    108.12851099
      1.55000000	    -28.24764634	     -0.65874704	     -7.54448203	     -0.40133789	      0.70657361	     -0.55753281	    101.50313016	     -5.16415935	      6.27503409	    101.71111775	      1.77519389	     23.23454287	    -10.75108946	     -7.28720184	    101.22552352	    -19.04444631	     12.27223675	    107.37087113	      1.87397522	     26.55213385	     -6.61050559	     -7.28720184	    -38.76441433	     -4.72885206	      4.22603476	     92.60080379	    -22.97637426	     18.05500598	     89.31133191	    109.28075411	     97.63368577	    -17.54856618	     35.54906431	     92.18610808	    107.95997901
      1.56000000	    -28.33084845	     -0.53529619	     -7.58794919	     -0.39979250	      0.70590425	     -0.55759065	    101.68575636	     -4.98787784	      6.53673466	    101.94389928	      1.77925669	     23.08490541	    -10.81809777	     -7.28988293	    101.21361643	    -18.91909427	     12.25146690	    107.55889677	      1.87725689	     26.59398672	     -6.93762936	     -7.28988293	    -39.37517999	     -4.71771466	      4.12565922	     96.00723237	    -22.01571388	     19.48468330	     89.12794280	    109.19565390	     99.84134992	    -16.75702734	     35.72895941	     91.75680919	    107.77348387
